# xmcd CD database file
#
# Track frame offsets:
#	150
#	24441
#	79503
#	131996
#	168042
#	189529
#	220304
#	240871
#
# Disc length: 3576 seconds
#
# Revision: 0
# Processed by: cddbd v1.5.2PL0 Copyright (c) Steve Scherf et al.
# Submitted via: CDex 1.51
#
DISCID=5d0df608
DTITLE=Helmut Brandt's Mainstream Orchestra/Berlin Philharmonic Jazz Goup - Benefizkonzert  fur die Ermordeten Juden Europas
DYEAR=2001
DGENRE=Jazz
TTITLE0=01-All Blues
TTITLE1=02-Pent-up House
TTITLE2=03-Trains
TTITLE3=04-Hoboken Bounce
TTITLE4=05-The Moonlight Magic
TTITLE5=06-Fuga XX Var. J.S. Bach
TTITLE6=07-Nordlicht
TTITLE7=08-Jarhgang 37
EXTD=YEAR: 2001
EXTT0=
EXTT1=
EXTT2=
EXTT3=
EXTT4=
EXTT5=
EXTT6=
EXTT7=
PLAYORDER=
